<?xml version="1.0" standalone="no"?>
<!DOCTYPE svg PUBLIC "-//W3C//DTD SVG 20010904//EN"
 "http://www.w3.org/TR/2001/REC-SVG-20010904/DTD/svg10.dtd">
<svg version="1.0" xmlns="http://www.w3.org/2000/svg"
 width="1502.000000pt" height="914.000000pt" viewBox="0 0 1502.000000 914.000000"
 preserveAspectRatio="xMidYMid meet">
<metadata>
Created by potrace 1.16, written by Peter Selinger 2001-2019
</metadata>
<g transform="translate(0.000000,914.000000) scale(0.100000,-0.100000)"
fill="#000000" stroke="none">
<path d="M0 4570 l0 -4570 5055 0 c3731 0 5055 3 5055 11 0 8 4 8 13 0 10 -8
683 -11 2455 -11 l2442 0 0 4465 c0 4098 -1 4466 -16 4484 -10 11 -24 16 -35
14 -11 -3 -19 0 -19 7 0 7 6 10 14 7 8 -3 17 -1 19 6 3 8 10 5 21 -8 14 -19
15 -14 16 72 l0 93 -1572 0 -1573 -1 -95 -54 c-52 -30 -142 -80 -198 -112
l-104 -58 7 -66 c6 -63 5 -67 -19 -82 -14 -9 -31 -14 -39 -11 -8 3 -19 -1 -23
-8 -6 -8 -11 9 -14 48 l-5 61 -95 -55 c-52 -30 -160 -94 -240 -140 -210 -123
-353 -206 -540 -314 -91 -53 -229 -133 -307 -179 -79 -46 -234 -137 -345 -203
-575 -336 -539 -317 -562 -300 -18 12 -17 14 8 25 28 13 33 31 14 47 -14 11
-65 5 -74 -9 -9 -15 -33 -10 -43 10 -9 15 -4 22 32 40 51 27 92 59 84 67 -6 6
85 63 518 324 116 70 239 145 275 167 101 63 677 413 965 588 143 86 280 170
305 186 l45 29 -5559 0 c-4928 0 -5557 -2 -5552 -15 3 -9 0 -15 -8 -15 -8 0
-16 7 -20 15 -4 12 -26 15 -106 15 -88 0 -100 -2 -100 -17 -1 -17 -1 -17 -14
0 -7 9 -25 17 -40 17 l-26 0 0 -4570z m12147 3869 c67 -24 125 -51 128 -59 3
-8 3 -11 -1 -7 -4 4 -16 0 -26 -10 -16 -15 -21 -15 -55 0 -21 8 -83 33 -137
54 -80 30 -94 39 -75 44 13 3 23 12 21 19 -2 7 3 10 10 8 7 -3 68 -25 135 -49z
m2328 -451 c4 -62 9 -126 11 -143 2 -16 6 -63 10 -104 7 -70 6 -74 -12 -66
-10 4 -39 12 -64 17 -56 13 -57 14 -35 38 18 19 17 20 -3 20 -12 0 -22 5 -22
11 0 8 -4 8 -14 0 -11 -9 -17 -6 -31 15 -16 25 -16 27 9 53 14 15 25 36 25 47
-1 17 -2 17 -6 1 -7 -27 -27 -15 -32 19 l-4 29 -7 -30 c-8 -30 -8 -30 -9 7 -1
38 -15 58 -25 36 -3 -7 -4 -4 -1 8 3 12 -1 27 -10 34 -9 7 -21 22 -26 32 -11
20 -14 18 106 64 33 13 76 23 96 23 l37 1 7 -112z m-2609 -737 c4 -4 24 4 74
29 9 4 30 11 48 15 l33 7 -3 -79 -3 -78 -180 -71 c-333 -131 -789 -311 -963
-378 -95 -37 -179 -74 -187 -82 -26 -27 -300 -135 -350 -139 -16 -2 -165 -56
-330 -120 -165 -65 -372 -147 -460 -181 l-160 -63 -3 56 c-4 65 -9 60 113 109
50 20 92 40 95 45 9 13 267 122 295 124 18 1 90 27 103 38 6 5 12 7 12 3 0 -4
10 0 23 8 12 8 37 17 55 21 20 4 32 13 33 23 0 9 3 12 5 5 3 -7 77 18 212 74
114 46 221 89 237 95 51 18 57 28 50 74 -3 26 -2 45 5 49 6 4 10 -12 10 -44 0
-28 1 -51 3 -51 4 0 152 63 204 86 17 8 34 14 37 14 3 0 31 12 63 27 32 15 64
26 71 25 9 -2 12 22 12 94 0 117 7 121 11 6 3 -77 11 -96 33 -74 4 4 11 7 14
8 4 0 16 4 27 9 11 4 54 21 95 37 41 16 92 38 113 49 22 10 45 19 53 19 11 0
14 17 15 73 1 52 3 64 8 42 4 -16 7 -45 5 -62 -1 -23 2 -33 12 -33 11 0 14 22
14 110 0 67 4 110 10 110 6 0 10 -40 10 -100 0 -108 2 -112 54 -85 15 8 33 15
38 15 11 0 62 21 121 51 22 10 45 19 53 19 10 0 14 14 15 53 0 60 9 140 15
146 2 2 4 -37 4 -87 0 -75 3 -92 15 -92 12 0 15 20 17 113 l2 112 3 -95 c2
-52 6 -101 8 -109 9 -24 24 1 26 46 2 23 7 39 12 36 5 -3 7 -21 5 -39 -3 -24
0 -34 10 -34 11 0 12 34 8 193 l-4 192 10 -180 c5 -99 12 -182 14 -184z
m-3587 -91 l-1 -141 -36 -24 c-20 -14 -39 -25 -43 -25 -3 0 -4 23 -1 52 6 63
13 65 -168 -46 -209 -129 -558 -341 -742 -451 l-167 -100 -3 -49 c-2 -37 -8
-52 -25 -64 l-23 -14 0 119 0 120 37 19 c21 10 58 33 83 49 25 17 55 35 65 42
66 40 190 120 200 128 12 11 12 11 145 91 52 31 103 64 113 73 16 13 19 13 27
1 8 -12 10 -10 10 8 0 12 8 26 18 29 9 4 60 34 112 68 52 34 151 97 220 140
69 44 136 87 149 97 13 10 25 18 28 18 2 0 3 -63 2 -140z m781 0 c0 -11 6 -20
13 -21 6 0 2 -5 -10 -11 -13 -6 -23 -14 -23 -19 0 -7 -40 -32 -140 -86 -154
-83 -200 -107 -203 -102 -3 2 -7 14 -11 25 -6 19 6 29 99 84 58 34 120 68 138
75 18 8 52 28 77 44 54 36 60 37 60 11z m-792 -777 c-2 -315 -8 -576 -12 -580
-4 -4 -11 -1 -16 7 -7 11 -13 12 -37 1 l-28 -13 24 23 24 22 -22 18 c-36 30
-21 69 28 69 23 1 24 2 8 11 -10 6 -27 9 -38 6 -10 -3 -19 -1 -19 4 0 5 11 9
24 9 38 0 41 19 5 32 l-32 11 6 306 c4 168 7 383 7 476 l0 170 38 22 37 21 4
-21 c2 -12 1 -280 -1 -594z m-1156 -225 c-11 -498 -18 -663 -26 -660 -14 6
-26 -21 -15 -34 7 -9 4 -16 -11 -24 l-22 -12 7 291 c4 160 5 291 2 291 -5 0
-191 -98 -406 -214 -68 -37 -129 -68 -135 -69 -6 -1 -13 -5 -16 -8 -5 -5 -103
-60 -204 -113 -26 -14 -53 -23 -59 -19 -6 3 -7 1 -3 -5 4 -7 1 -12 -8 -12 -9
0 -19 0 -23 -1 -4 0 -9 4 -11 10 -2 6 3 11 12 11 9 0 16 5 16 11 0 6 7 8 16 5
8 -3 13 -2 10 2 -2 4 45 34 105 67 l108 60 1 55 c0 30 5 62 10 70 7 11 10 -4
10 -48 l0 -63 103 53 c56 29 104 55 107 58 3 3 25 14 50 25 25 11 47 22 50 26
5 7 37 26 147 85 37 20 83 45 101 56 l32 20 0 99 c0 95 1 101 26 124 15 14 28
25 28 25 1 0 0 -73 -2 -162z m-1201 -615 c-7 -136 -16 -340 -21 -453 -6 -112
-10 -248 -10 -302 0 -78 -3 -98 -14 -98 -8 0 -17 -8 -19 -17 -3 -10 -5 6 -6
35 0 28 -3 52 -4 52 -2 0 -47 -18 -100 -39 -52 -22 -98 -37 -101 -33 -3 3 -6
0 -6 -6 0 -7 -7 -12 -15 -12 -8 0 -24 -9 -35 -20 -11 -11 -30 -20 -42 -20 -13
0 -54 -14 -93 -30 -38 -17 -71 -30 -72 -30 -9 0 -1 50 10 57 6 4 93 43 192 86
99 43 201 88 226 99 l45 20 18 377 c10 207 22 378 27 379 5 2 9 8 9 13 0 6 -5
7 -12 3 -8 -5 -9 3 -5 29 3 21 3 37 0 37 -3 0 -63 -35 -132 -78 -189 -118
-197 -122 -206 -114 -5 4 -6 2 -2 -3 3 -6 -32 -33 -78 -60 l-84 -49 -5 -71
c-3 -38 -8 -142 -11 -230 -11 -279 -24 -507 -29 -513 -12 -12 -10 180 4 478
19 365 23 410 41 410 6 0 8 4 4 10 -7 11 55 53 135 92 14 7 28 17 32 23 4 5 8
6 8 2 0 -4 12 4 27 18 15 14 33 25 39 25 6 0 17 7 24 15 7 8 16 12 22 9 5 -3
20 6 34 21 13 14 24 23 24 20 0 -4 7 1 16 9 8 9 19 14 24 11 5 -3 12 0 16 6 4
8 3 9 -4 5 -7 -4 -12 -5 -12 -3 0 6 100 67 109 67 5 0 14 7 21 15 7 9 15 13
18 11 2 -3 -1 -116 -7 -253z m2168 211 c-7 -24 -7 -39 0 -48 8 -10 -13 -22
-94 -55 -109 -45 -140 -47 -99 -6 31 32 30 43 -3 37 -47 -8 -15 13 92 61 55
25 103 46 107 46 3 1 2 -15 -3 -35z m-499 -198 c0 -8 -7 -16 -15 -20 -22 -8
-18 -29 4 -23 13 3 21 -1 24 -15 5 -16 -5 -25 -58 -49 -36 -16 -74 -29 -85
-29 -12 0 -29 -4 -38 -9 -20 -11 -58 12 -47 28 3 7 -2 11 -14 11 -13 0 -21 -6
-21 -17 0 -13 -8 -18 -30 -18 -32 0 -37 7 -17 26 11 10 272 126 290 128 4 1 7
-5 7 -13z m632 -6 c11 0 18 -7 18 -20 0 -11 6 -20 14 -20 11 0 14 -25 14 -120
0 -76 -4 -120 -10 -120 -7 0 -8 -14 -5 -35 5 -28 3 -35 -11 -35 -15 0 -15 2
-2 10 11 7 5 10 -22 10 l-38 0 0 177 c0 138 3 174 12 165 7 -7 20 -12 30 -12z
m3896 -102 c-3 -79 -4 -83 -27 -86 -15 -2 -21 0 -17 7 4 6 2 11 -3 11 -6 0
-11 -7 -11 -16 0 -10 -6 -14 -15 -11 -8 4 -17 2 -21 -4 -3 -6 -13 -8 -22 -4
-8 3 -18 2 -21 -2 -10 -15 -495 -123 -518 -117 -15 4 -23 2 -23 -6 0 -9 -6 -8
-19 4 -15 14 -24 15 -40 7 -33 -18 -43 -13 -25 14 9 15 12 25 5 25 -5 0 -8 8
-5 18 5 16 4 16 -9 -1 -14 -17 -16 -16 -25 10 -10 27 -11 27 -17 6 -10 -30
-37 -31 -33 -1 3 20 21 27 203 70 110 25 234 56 275 67 41 11 113 29 160 41
47 12 105 28 130 35 83 24 81 26 78 -67z m-5480 -345 c-3 -75 -4 -78 -28 -82
-14 -1 -27 -6 -30 -10 -3 -4 -89 -41 -192 -82 -174 -69 -208 -89 -155 -89 18
0 19 -2 7 -10 -8 -5 -23 -10 -34 -10 -17 0 -18 7 -13 85 2 47 6 88 8 89 7 7
424 185 432 186 5 0 7 -35 5 -77z m446 -55 c10 -37 7 -118 -4 -118 -7 0 -7 -6
0 -19 19 -37 12 -76 -19 -99 l-29 -21 -4 127 c-2 70 -2 133 0 140 7 22 49 14
56 -10z m-2494 -45 c0 -21 -11 -227 -25 -458 -14 -231 -25 -421 -25 -423 0 -2
-4 -1 -9 3 -6 3 -7 36 -4 76 l6 71 -31 -16 c-40 -21 -44 -20 -40 7 2 13 17 29
39 41 l35 19 20 314 c10 172 16 313 13 313 -18 0 -120 -87 -124 -104 -2 -12
-11 -163 -20 -336 -26 -508 -32 -590 -40 -598 -4 -4 -5 59 -1 140 6 132 5 147
-8 142 -23 -9 -20 19 2 33 16 10 20 30 26 145 3 73 9 178 13 233 6 92 5 99
-10 86 -22 -18 -22 -3 0 21 12 13 19 46 24 119 3 55 11 105 16 110 17 17 128
98 136 98 4 1 7 -16 7 -36z m-242 -668 c-17 -275 -32 -502 -34 -504 -12 -13
-13 20 -5 160 5 85 8 155 7 155 0 1 -21 -8 -46 -20 -34 -16 -45 -27 -44 -43 1
-13 -3 -20 -7 -17 -5 3 -6 10 -3 16 7 11 -24 8 -60 -7 -17 -7 -18 -5 -12 16 4
13 8 29 8 36 1 6 7 9 14 6 6 -2 44 12 82 31 83 42 75 14 92 326 6 113 14 218
17 234 7 38 -1 34 -110 -45 l-85 -62 -6 -91 c-4 -50 -13 -187 -21 -305 -8
-117 -17 -216 -21 -220 -6 -6 -1 126 13 308 l6 85 -37 -23 c-20 -12 -42 -21
-49 -18 -6 2 5 14 26 27 31 19 37 28 38 58 l1 37 8 -30 c7 -30 7 -30 13 -5 3
14 9 73 12 131 l7 106 111 81 c60 45 111 81 113 80 1 -2 -12 -228 -28 -503z
m-433 128 c-2 -10 -9 -116 -16 -236 -7 -120 -15 -219 -18 -221 -9 -6 -5 116 8
262 7 74 11 136 8 138 -3 3 -35 -16 -71 -42 l-66 -48 0 -50 c0 -75 -22 -387
-28 -382 -5 6 16 393 25 449 5 34 15 46 77 92 79 60 86 63 81 38z m-459 -1939
c60 -8 132 -18 159 -21 52 -5 74 -13 37 -13 -18 0 -22 -6 -22 -34 0 -36 -14
-56 -23 -34 -4 10 -8 10 -15 -1 -11 -16 -47 -7 -37 9 4 6 11 8 16 5 5 -4 9 -2
9 3 0 5 -13 12 -29 14 -18 3 -29 0 -28 -6 1 -6 -2 -10 -8 -9 -5 1 -28 4 -50 8
-28 5 -36 4 -25 -4 8 -5 18 -7 24 -4 5 3 6 1 3 -4 -4 -6 -17 -8 -31 -6 -13 3
-27 0 -30 -6 -11 -18 -25 -12 -21 8 5 27 -5 62 -16 55 -5 -3 -5 -13 1 -24 7
-13 5 -21 -7 -31 -9 -8 -14 -9 -11 -4 3 6 2 19 -3 30 -6 16 -8 17 -8 3 -1 -9
-5 -19 -10 -23 -18 -10 -2 37 16 51 14 11 14 13 2 9 -18 -7 -44 19 -34 35 8
13 11 13 141 -6z m858 -199 c16 -2 33 -9 37 -18 5 -9 19 -13 36 -11 16 2 20 1
11 -2 -22 -7 -24 -24 -3 -24 8 0 15 -4 15 -10 0 -5 5 -10 11 -10 5 0 7 5 4 10
-3 6 1 10 9 10 9 0 16 -4 16 -9 0 -5 14 -13 31 -16 24 -6 28 -9 18 -17 -9 -6
-3 -7 20 -3 26 6 32 4 26 -5 -5 -9 -4 -11 3 -6 10 6 157 -18 192 -31 8 -4 19
-5 24 -4 5 1 13 -4 17 -11 5 -7 9 -8 9 -2 0 7 15 8 48 3 26 -5 81 -13 122 -19
41 -5 86 -12 100 -15 14 -3 41 -8 60 -10 19 -3 53 -8 75 -11 22 -3 55 -6 73
-7 17 0 32 -3 32 -6 0 -3 28 -7 63 -8 34 -2 91 -7 127 -12 36 -6 88 -13 115
-16 28 -3 64 -8 80 -10 17 -2 59 -7 95 -11 36 -3 88 -10 115 -15 28 -6 57 -10
65 -11 8 0 62 -7 120 -14 58 -8 131 -17 162 -20 32 -4 55 -10 53 -15 -3 -4 10
-5 29 -2 19 3 43 2 53 -2 10 -4 33 -7 51 -6 19 2 32 -2 32 -9 0 -7 7 -10 15
-7 8 4 17 1 21 -5 4 -7 9 -6 14 2 5 9 17 10 36 5 40 -11 44 -12 87 -13 21 -1
36 -6 33 -11 -3 -4 6 -6 19 -3 14 2 33 1 42 -3 10 -4 29 -8 43 -9 66 -5 199
-30 194 -37 -2 -4 13 -5 33 -3 29 4 34 3 23 -5 -11 -8 -2 -9 35 -5 33 4 45 2
36 -4 -9 -7 -1 -10 30 -10 24 0 58 -3 74 -5 17 -2 44 -5 60 -6 23 -1 27 -3 15
-11 -10 -6 -3 -8 23 -3 29 4 37 3 35 -8 -2 -9 7 -15 27 -16 25 -2 27 -1 10 7
-28 12 -5 12 55 -1 27 -6 48 -15 45 -20 -4 -5 14 -6 41 -2 34 4 45 3 40 -5 -5
-8 2 -10 23 -6 16 4 54 0 83 -7 29 -8 58 -14 63 -15 65 -6 126 -18 131 -25 3
-5 9 -7 13 -4 10 5 241 -38 312 -59 28 -9 55 -14 59 -11 4 2 0 -11 -9 -30 -12
-25 -18 -31 -26 -21 -13 17 -65 30 -65 16 0 -5 -4 -10 -10 -10 -5 0 -9 5 -7
11 1 6 -4 14 -12 17 -8 3 -11 0 -7 -7 4 -6 2 -11 -3 -11 -6 0 -11 7 -11 15 0
18 -36 20 -43 3 -3 -8 -6 -6 -6 5 -1 12 -9 17 -28 17 -22 0 -25 -2 -13 -10 10
-7 11 -10 2 -10 -7 0 -15 7 -18 15 -4 8 -10 15 -16 15 -5 0 -6 -4 -3 -10 3 -5
-1 -10 -9 -10 -9 0 -15 5 -13 11 1 6 -4 14 -10 16 -7 3 -13 0 -13 -6 0 -6 -5
-11 -11 -11 -5 0 -7 5 -4 10 3 6 1 10 -4 10 -17 0 -24 2 -48 11 -14 5 -23 5
-23 -1 0 -6 -10 -10 -22 -9 -21 0 -21 1 -4 8 15 6 5 10 -39 19 -67 14 -89 14
-60 2 18 -8 18 -9 2 -9 -10 -1 -20 6 -23 14 -5 12 -10 13 -20 4 -9 -7 -14 -8
-14 -1 0 5 -9 8 -20 5 -12 -3 -20 0 -20 7 0 7 -8 10 -20 7 -11 -3 -20 -1 -20
3 0 5 -20 6 -45 3 -30 -3 -45 -1 -45 6 0 7 -10 9 -26 5 -20 -5 -25 -4 -20 5 5
8 0 10 -18 7 -14 -3 -26 0 -26 5 0 7 -13 8 -32 4 -26 -5 -30 -4 -18 5 12 9 7
10 -19 5 -23 -5 -31 -4 -27 4 4 6 0 11 -9 11 -9 0 -14 -3 -11 -8 2 -4 -13 -6
-35 -4 -21 2 -37 7 -34 11 2 4 -4 7 -13 7 -54 0 -83 5 -78 13 4 5 -3 7 -14 4
-11 -3 -28 -2 -37 2 -10 5 -29 7 -43 6 -20 -2 -22 0 -10 9 11 8 6 9 -22 4 -24
-4 -38 -2 -38 4 0 7 -14 8 -37 5 -28 -5 -34 -3 -28 7 6 10 -1 11 -31 6 -30 -5
-35 -4 -24 4 12 9 10 11 -12 7 -16 -2 -28 0 -28 6 0 6 -18 7 -45 4 -25 -4 -47
-2 -50 3 -4 6 -11 8 -16 5 -5 -4 -9 0 -9 7 0 9 -3 9 -10 -2 -8 -12 -10 -12
-10 -1 0 9 -8 12 -25 9 -14 -3 -25 -1 -25 3 0 5 -18 7 -41 4 -26 -4 -38 -2
-34 5 3 5 0 10 -9 10 -8 0 -22 3 -32 7 -12 4 -15 3 -10 -5 4 -7 2 -12 -3 -12
-6 0 -11 5 -11 10 0 7 -13 8 -34 5 -20 -4 -36 -2 -40 4 -4 6 -20 8 -36 4 -17
-3 -30 -1 -30 4 0 5 -16 7 -35 5 -21 -3 -35 0 -35 7 0 7 -13 9 -36 5 -20 -3
-41 -1 -49 6 -8 7 -19 9 -26 5 -6 -4 -15 -1 -20 6 -6 10 -9 11 -9 2 0 -7 -5
-13 -11 -13 -5 0 -7 5 -3 12 5 8 -2 9 -24 5 -18 -4 -32 -3 -32 2 0 13 -49 20
-54 7 -3 -7 -7 -7 -14 2 -5 8 -42 18 -83 23 -115 14 -152 19 -181 25 -19 4
-28 1 -28 -8 0 -10 -2 -10 -8 0 -9 13 -101 27 -184 27 -27 0 -48 4 -48 9 0 4
-16 6 -35 4 -19 -2 -35 0 -35 5 0 5 -18 7 -40 5 -22 -2 -40 -1 -40 2 0 3 -16
7 -37 8 -20 2 -40 5 -45 8 -4 3 -8 0 -8 -7 0 -9 -4 -9 -15 1 -8 6 -19 9 -25 5
-5 -3 -10 -2 -10 4 0 6 -24 9 -60 6 -39 -2 -58 0 -54 7 3 5 -2 8 -12 7 -11 -2
-25 0 -33 5 -10 6 -12 5 -7 -2 4 -7 1 -12 -8 -12 -9 0 -16 4 -16 9 0 6 -17 7
-37 5 -30 -5 -35 -3 -23 6 12 9 4 10 -35 6 -37 -4 -45 -3 -30 4 15 8 7 9 -29
4 -36 -4 -46 -3 -41 7 6 9 -1 10 -30 5 -25 -5 -35 -4 -30 3 4 7 -5 9 -26 4
-25 -5 -30 -3 -24 7 6 10 1 12 -26 7 -26 -5 -30 -4 -19 4 11 8 5 9 -25 5 -30
-4 -36 -3 -25 5 12 8 9 10 -12 6 -16 -2 -28 -1 -28 3 0 5 -17 8 -37 8 -21 0
-39 4 -41 10 -1 5 -12 7 -24 4 -13 -3 -19 -1 -15 5 5 7 -1 9 -15 5 -15 -4 -19
-2 -13 8 5 8 3 11 -6 8 -15 -6 -56 20 -95 59 -30 30 -30 36 -2 27 13 -4 36 -8
52 -9z m5981 -532 c35 -6 37 -7 15 -13 -20 -5 -26 -13 -28 -43 -3 -36 -2 -37
40 -48 l44 -12 2 -69 c2 -51 -1 -68 -10 -68 -14 0 -17 37 -5 57 4 6 2 13 -5
15 -6 2 -18 20 -25 39 l-13 34 4 -50 c3 -27 8 -59 12 -69 7 -18 3 -19 -62 -12
-64 6 -322 40 -389 51 -25 4 -30 9 -29 33 0 16 11 39 23 51 12 12 19 26 16 31
-11 17 1 11 29 -15 15 -14 24 -25 20 -25 -4 0 -16 7 -26 17 -24 22 -22 4 3
-26 20 -24 21 -24 48 -8 21 12 29 13 28 4 -1 -45 5 -67 18 -67 9 0 15 9 15 21
0 12 5 19 13 16 6 -2 11 -12 11 -21 -1 -9 3 -15 10 -13 19 7 6 69 -19 89 -15
11 -22 25 -18 34 5 12 7 13 14 3 6 -11 9 -10 14 2 5 13 14 15 46 9 55 -10 79
-3 79 24 0 13 3 26 7 29 8 9 67 9 118 0z m1921 -138 c-4 -12 4 -15 37 -16 31
-1 23 -4 -33 -11 -41 -5 -75 -10 -76 -11 -1 -1 7 -165 19 -365 19 -333 19
-364 5 -379 -11 -10 -23 -13 -35 -8 -10 5 -22 7 -27 6 -5 -1 -3 5 4 14 9 11
10 19 4 23 -6 4 -13 14 -16 23 -9 23 -42 688 -36 695 3 3 32 8 64 11 34 3 62
12 67 19 11 19 31 18 23 -1z m-4040 -165 c-14 -26 -26 -55 -26 -64 0 -8 -9
-20 -19 -26 -11 -5 -23 -20 -27 -32 -12 -40 -95 -178 -107 -178 -7 0 -7 -3 -1
-9 14 -15 137 -41 259 -56 113 -15 156 -22 188 -31 18 -6 18 -6 0 -19 -15 -12
-21 -12 -39 0 -12 8 -25 10 -30 5 -5 -4 -34 -4 -64 1 -30 5 -95 16 -145 24
-150 24 -225 45 -225 64 0 11 50 45 50 34 0 -10 20 19 20 29 0 4 -24 9 -52 11
l-53 3 56 2 c31 1 61 8 67 15 9 11 99 169 147 260 11 21 21 33 24 26 2 -6 -9
-32 -23 -59z m4109 -422 c11 -181 11 -178 -40 -178 -16 0 -24 6 -24 18 0 9 -7
116 -15 237 -21 306 -22 296 26 185 41 -93 42 -98 53 -262z m-2855 303 c43
-10 68 -21 60 -24 -9 -4 -7 -5 5 -2 11 2 54 -4 95 -14 l75 -18 -95 -7 c-228
-15 -350 -17 -350 -7 0 6 21 11 48 12 48 1 48 3 -1 13 -15 4 -25 11 -22 16 3
5 1 11 -5 15 -5 3 -10 1 -10 -4 0 -6 -6 -11 -14 -11 -9 0 -12 7 -9 20 7 25 15
25 38 0 10 -11 23 -16 29 -12 6 4 26 7 45 7 37 0 54 20 24 28 -12 3 -13 5 -3
5 8 1 49 -7 90 -17z m1698 -438 c105 -36 141 -52 137 -62 -4 -11 -3 -11 9 -2
11 10 32 7 100 -15 47 -14 86 -28 86 -31 0 -2 -26 -1 -57 3 -54 6 -72 -5 -21
-12 13 -2 41 -6 62 -10 28 -5 37 -4 32 4 -4 7 -1 12 9 12 8 0 18 -6 21 -14 3
-8 26 -17 51 -21 24 -3 42 -9 39 -13 -7 -6 -8 -7 -71 -21 -28 -7 0 -8 93 -4
99 4 132 3 132 -6 0 -7 3 -10 8 -8 14 9 107 -21 104 -33 -2 -8 5 -10 20 -7 33
9 528 -119 528 -135 0 -5 -18 -8 -39 -8 -22 0 -42 -4 -45 -8 -3 -5 -45 -10
-92 -11 -98 -1 -117 -7 -56 -17 23 -4 39 -10 37 -15 -3 -4 5 -10 17 -12 13 -3
-2 -5 -32 -4 -96 2 -148 -3 -125 -12 17 -7 14 -11 -27 -30 -26 -11 -57 -21
-70 -21 -17 0 -19 -3 -9 -9 8 -5 -36 -9 -109 -10 -67 0 -127 -5 -134 -10 -12
-9 -135 -5 -145 5 -3 4 11 4 31 1 24 -4 38 -1 41 6 2 8 30 12 78 12 68 -1 108
12 92 29 -4 3 25 6 62 6 64 0 68 1 53 16 -9 9 -29 16 -45 16 -15 0 -34 5 -40
10 -10 8 -13 6 -13 -6 0 -10 -5 -14 -10 -11 -6 4 -8 10 -5 15 6 10 -14 17 -92
29 -56 9 -64 -2 -10 -15 17 -4 35 -9 40 -10 4 -1 16 -2 28 -3 34 -2 10 -21
-27 -21 -19 0 -34 -4 -34 -10 0 -5 -9 -10 -21 -10 -11 0 -18 -4 -15 -9 9 -14
-120 -3 -172 14 -53 19 -119 34 -174 42 -21 3 -38 9 -38 14 0 5 -8 9 -17 10
-10 0 5 6 32 13 l50 12 -45 8 c-25 4 -67 11 -95 16 -27 5 -91 14 -142 21 l-92
13 -3 87 c-2 48 0 85 4 83 4 -2 9 0 13 6 3 5 24 14 45 20 29 8 40 16 40 29 0
16 -12 21 -72 31 -40 6 -149 26 -243 44 -145 29 -162 34 -114 35 31 0 59 4 63
9 4 4 55 12 114 18 59 6 114 12 122 13 8 1 79 -20 158 -46z m-4005 -189 c188
-64 349 -118 357 -121 9 -2 21 -12 27 -22 9 -14 -15 -9 -115 27 -70 24 -228
80 -352 122 -298 104 -311 108 -282 109 13 1 177 -51 365 -115z m-494 -15 c23
-8 29 -14 20 -19 -9 -6 -12 -44 -11 -147 2 -135 -5 -172 -27 -159 -6 4 -9 11
-6 16 3 5 1 11 -4 15 -17 10 -131 13 -161 5 -35 -10 -43 -4 -28 24 10 19 10
20 -6 7 -15 -13 -16 -12 -6 15 6 15 15 33 20 39 17 20 -137 7 -189 -16 -43
-19 -46 -19 -58 -3 -19 26 -17 30 25 47 44 19 26 22 -29 6 -30 -10 -45 -9 -76
4 l-38 15 27 10 c14 6 76 14 136 18 93 6 117 4 154 -11 77 -31 96 -34 109 -19
9 11 6 15 -20 20 -17 4 -31 10 -31 14 0 9 61 20 113 20 l37 0 0 55 c0 60 1 61
49 44z"/>
</g>
</svg>
