<svg width="145" height="128" viewBox="0 0 145 128" fill="none" xmlns="http://www.w3.org/2000/svg">
<path d="M2.66797 2H18.6881C21.2448 2 23.5006 3.81087 24.2441 6.46011L49.3233 95.8126C50.0669 98.4617 52.3227 100.273 54.8791 100.273H111.385C114.042 100.273 116.361 98.3194 117.014 95.5301L127.132 52.3412C127.785 49.5516 130.104 47.5986 132.761 47.5986H142.76" stroke="white" stroke-width="3.75648" stroke-linecap="round"/>
<path d="M85.5048 27.0624C84.6544 26.1415 83.2757 26.1415 82.4253 27.0624L68.567 42.0722C67.7168 42.9933 67.7168 44.4865 68.567 45.4076C69.4174 46.3287 70.7963 46.3287 71.6467 45.4076L83.965 32.0658L96.2834 45.4076C97.1338 46.3287 98.5125 46.3287 99.3629 45.4076C100.213 44.4865 100.213 42.9933 99.3629 42.0722L85.5048 27.0624ZM86.1427 72.7563V28.7302H81.7874V72.7563H86.1427Z" fill="white"/>
<path d="M68.7218 126.217C72.3298 126.217 75.2546 123.049 75.2546 119.141C75.2546 115.233 72.3298 112.065 68.7218 112.065C65.1139 112.065 62.1891 115.233 62.1891 119.141C62.1891 123.049 65.1139 126.217 68.7218 126.217Z" stroke="white" stroke-width="3.00518"/>
<path d="M100.66 126.217C104.268 126.217 107.193 123.049 107.193 119.141C107.193 115.233 104.268 112.065 100.66 112.065C97.052 112.065 94.1271 115.233 94.1271 119.141C94.1271 123.049 97.052 126.217 100.66 126.217Z" stroke="white" stroke-width="3.00518"/>
</svg>
